<svg xmlns="http://www.w3.org/2000/svg" width="19" height="20" viewBox="0 0 19 20" fill="none">
  <path d="M7 7V3.25C7 2.65326 7.23705 2.08097 7.65901 1.65901C8.08097 1.23705 8.65326 1 9.25 1H15.25C15.8467 1 16.419 1.23705 16.841 1.65901C17.2629 2.08097 17.5 2.65326 17.5 3.25V16.75C17.5 17.3467 17.2629 17.919 16.841 18.341C16.419 18.7629 15.8467 19 15.25 19H9.25C8.65326 19 8.08097 18.7629 7.65901 18.341C7.23705 17.919 7 17.3467 7 16.75V13M10.75 7L13.75 10M13.75 10L10.75 13M13.75 10H1" stroke="#515151" stroke-width="1.5" stroke-linecap="round" stroke-linejoin="round"/>
</svg>